<svg xmlns="http://www.w3.org/2000/svg"  viewBox="0 0 24 24" width="24px" height="24px" baseProfile="basic"><path fill="#306263" d="M16.186,11.293l4.382-4.382c0.576-0.576,0.576-1.511,0-2.087l-1.391-1.391	c-0.576-0.576-1.511-0.576-2.087,0l-4.382,4.382c-0.391,0.391-1.024,0.391-1.414,0L6.911,3.432c-0.576-0.576-1.511-0.576-2.087,0	L3.432,4.824c-0.576,0.576-0.576,1.511,0,2.087l4.382,4.382c0.391,0.391,0.391,1.024,0,1.414l-4.382,4.382	c-0.576,0.576-0.576,1.511,0,2.087l1.391,1.391c0.576,0.576,1.511,0.576,2.087,0l4.382-4.382c0.391-0.391,1.024-0.391,1.414,0	l4.382,4.382c0.576,0.576,1.511,0.576,2.087,0l1.391-1.391c0.576-0.576,0.576-1.511,0-2.087l-4.382-4.382	C15.795,12.317,15.795,11.683,16.186,11.293z"/></svg>